<svg viewBox="0 0 416.841 56.5" fill="#fa7268" xmlns="http://www.w3.org/2000/svg">
  <path
    d="M13.646.402h389.549a13.215 13.215 0 0 1 13.244 13.244v29.208a13.215 13.215 0 0 1-13.244 13.244H13.646A13.215 13.215 0 0 1 .402 42.854V13.646A13.215 13.215 0 0 1 13.646.402Z"
    fill="#fff" stroke="#fa7268" stroke-width=".804" />
  <g aria-label="DE YOGAPRAKTIJK GRONINGEN" style="font-size:38.3872px;stroke-width:3.19892">
    <path
      d="M62.876 41.443c4.107 0 5.988-2.38 5.988-6.987v-11.9c0-4.606-1.88-6.986-5.988-6.986H58.46v25.873zm0-24.683c3.34 0 4.76 1.804 4.76 5.796v11.9c0 3.992-1.42 5.797-4.76 5.797H59.65V16.76ZM71.743 15.57v25.873h9.29v-1.19h-8.1V29.082h6.948v-1.19h-6.948V16.76h8.1v-1.19zM92.05 15.57h-1.382l5.681 13.09v12.783h1.19V28.66l5.643-13.09H101.8l-4.875 11.17zM103.029 34.571c0 2.88.73 4.53 1.804 5.566 1.075 1.037 2.457 1.306 3.685 1.306 1.267 0 2.649-.27 3.724-1.306 1.075-1.036 1.804-2.687 1.804-5.566V22.403c0-4.453-1.843-6.833-5.528-6.833-3.647 0-5.49 2.418-5.49 6.833zm1.19-12.168c0-3.84 1.382-5.643 4.3-5.643 2.878 0 4.298 1.689 4.298 5.643V34.57c0 3.993-1.497 5.682-4.299 5.682-2.879 0-4.3-1.805-4.3-5.682zM116.695 34.61c0 4.414 1.842 6.833 5.527 6.833s5.528-2.38 5.528-6.833v-4.607h-6.833v1.229h5.605v3.378c0 3.838-1.42 5.643-4.3 5.643-2.917 0-4.337-1.805-4.337-5.643V22.364c0-2.495.652-3.915 1.497-4.683.844-.768 1.919-.921 2.84-.921.922 0 1.996.153 2.841.92.844.769 1.459 2.189 1.459 4.684v.614h1.228v-.614c0-4.453-1.843-6.794-5.528-6.794-3.685 0-5.527 2.341-5.527 6.794zM141.8 41.443h1.228l-5.911-25.873h-.96l-3.916 16.775v.115l-2.034 8.983h1.228l1.766-7.908h6.833zm-5.183-22.61 3.148 13.512h-6.257zM149.938 29.082c4.146 0 6.027-2.265 6.027-6.756 0-4.492-1.881-6.756-6.027-6.756h-4.645v25.873h1.19V29.082Zm0-12.322c3.416 0 4.798 1.574 4.798 5.566 0 3.877-1.42 5.566-4.798 5.566h-3.455V16.76ZM169.055 34.226c0-1.958-.576-3.455-1.728-4.568a4.47 4.47 0 0 0-1.305-.922c.614-.307 1.497-.69 1.92-1.19.959-1.113 1.42-2.84 1.42-5.143 0-4.722-1.46-6.872-5.605-6.872h-5.412v25.873h1.19V29.312h3.454c3.071 0 4.837 1.804 4.837 4.914v7.178h1.229zm-9.52-17.466h4.222c3.417 0 4.415 1.612 4.415 5.643 0 3.992-1.766 5.68-5.183 5.68h-3.454zM183.258 41.443h1.228l-5.911-25.873h-.96l-3.916 16.775v.115l-2.034 8.983h1.228l1.766-7.908h6.833zm-5.183-22.61 3.148 13.512h-6.257zM186.79 30.272V15.57h-1.23v25.873h1.23V32.46l2.149-3.263 6.986 12.246h1.382L189.63 27.93l7.677-12.36h-1.458zM198.42 16.76h5.03v24.644h1.19V16.76h5.066V15.53h-11.285zM213.392 15.57h-1.19v25.873h1.19zM215.887 35.109c0 4.184 1.727 6.334 5.144 6.334 3.416 0 5.105-2.15 5.105-6.334v-19.54h-1.19v19.54c0 3.531-1.343 5.144-3.915 5.144-.883 0-1.843-.116-2.61-.845-.768-.73-1.344-1.996-1.344-4.3v-.575h-1.19zM229.86 30.272V15.57h-1.229v25.873h1.229V32.46l2.15-3.263 6.986 12.246h1.382L232.7 27.93l7.678-12.36h-1.459zM249.744 34.61c0 4.414 1.843 6.833 5.528 6.833 3.685 0 5.528-2.38 5.528-6.833v-4.607h-6.833v1.229h5.604v3.378c0 3.838-1.42 5.643-4.3 5.643-2.917 0-4.337-1.805-4.337-5.643V22.364c0-2.495.653-3.915 1.497-4.683.845-.768 1.92-.921 2.84-.921.922 0 1.997.153 2.842.92.844.769 1.458 2.189 1.458 4.684v.614h1.229v-.614c0-4.453-1.843-6.794-5.528-6.794-3.685 0-5.528 2.341-5.528 6.794zM274.005 34.226c0-1.958-.576-3.455-1.728-4.568a4.47 4.47 0 0 0-1.305-.922c.614-.307 1.497-.69 1.92-1.19.96-1.113 1.42-2.84 1.42-5.143 0-4.722-1.459-6.872-5.605-6.872h-5.412v25.873h1.19V29.312h3.455c3.07 0 4.836 1.804 4.836 4.914v7.178h1.229zm-9.52-17.466h4.222c3.417 0 4.415 1.612 4.415 5.643 0 3.992-1.766 5.68-5.182 5.68h-3.455zM276.615 34.571c0 2.88.73 4.53 1.804 5.566 1.075 1.037 2.457 1.306 3.685 1.306 1.267 0 2.65-.27 3.724-1.306 1.075-1.036 1.804-2.687 1.804-5.566V22.403c0-4.453-1.842-6.833-5.528-6.833-3.646 0-5.489 2.418-5.489 6.833zm1.19-12.168c0-3.84 1.382-5.643 4.3-5.643 2.879 0 4.299 1.689 4.299 5.643V34.57c0 3.993-1.497 5.682-4.3 5.682-2.879 0-4.299-1.805-4.299-5.682zM301.413 41.443V15.57h-1.228v22.149l-8.906-22.15h-1.036v25.874h1.228v-22.15l8.944 22.15zM305.405 15.57h-1.19v25.873h1.19zM319.417 41.443V15.57h-1.229v22.149l-8.905-22.15h-1.037v25.874h1.228v-22.15l8.945 22.15zM322.104 34.61c0 4.414 1.842 6.833 5.528 6.833 3.685 0 5.527-2.38 5.527-6.833v-4.607h-6.833v1.229h5.605v3.378c0 3.838-1.42 5.643-4.3 5.643-2.917 0-4.337-1.805-4.337-5.643V22.364c0-2.495.652-3.915 1.497-4.683.844-.768 1.92-.921 2.84-.921.922 0 1.997.153 2.841.92.845.769 1.459 2.189 1.459 4.684v.614h1.228v-.614c0-4.453-1.842-6.794-5.527-6.794-3.686 0-5.528 2.341-5.528 6.794zM335.616 15.57v25.873h9.29v-1.19h-8.1V29.082h6.948v-1.19h-6.948V16.76h8.1v-1.19zM358.38 41.443V15.57h-1.229v22.149l-8.906-22.15h-1.036v25.874h1.228v-22.15l8.945 22.15z"
      style="font-family:'Ostrich Sans';-inkscape-font-specification:'Ostrich Sans'" />
  </g>
</svg>