<svg xmlns="http://www.w3.org/2000/svg" xmlns:xlink="http://www.w3.org/1999/xlink" fill="#fa7268"
  viewBox="0 0 416.841 56.5" xmlns:v="https://vecta.io/nano">
  <defs>
    <path id="B"
      d="M148.767 41.443h1.228l-5.912-25.873h-.96l-3.916 16.775v.115l-2.035 8.983h1.228l1.766-7.908h6.833zm-5.182-22.61l3.148 13.512h-6.257z" />
    <path id="C"
      d="M171.876 34.571c0 2.879.729 4.53 1.804 5.566s2.457 1.305 3.685 1.305c1.267 0 2.649-.269 3.724-1.305s1.804-2.687 1.804-5.566V22.403c0-4.453-1.843-6.833-5.528-6.833-3.647 0-5.489 2.418-5.489 6.833zm1.19-12.169c0-3.839 1.382-5.643 4.299-5.643 2.879 0 4.299 1.689 4.299 5.643v12.169c0 3.992-1.497 5.681-4.299 5.681-2.879 0-4.299-1.804-4.299-5.681z" />
    <path id="D"
      d="M185.542 34.61c0 4.415 1.843 6.833 5.528 6.833s5.528-2.38 5.528-6.833v-4.606h-6.833v1.228h5.605v3.378c0 3.839-1.42 5.643-4.299 5.643-2.917 0-4.338-1.804-4.338-5.643V22.364c0-2.495.653-3.915 1.497-4.683s1.919-.921 2.841-.921 1.996.154 2.841.921 1.459 2.188 1.459 4.683v.614h1.228v-.614c0-4.453-1.843-6.795-5.528-6.795s-5.528 2.342-5.528 6.795z" />
    <path id="E" d="M273.832 41.443V15.57h-1.228v22.149l-8.906-22.149h-1.036v25.873h1.228V19.293l8.944 22.149z" />
  </defs>
  <path
    d="M13.646.402h389.549c7.337 0 13.244 5.907 13.244 13.244v29.208c0 7.337-5.907 13.244-13.244 13.244H13.646C6.309 56.098.402 50.191.402 42.854V13.646C.402 6.309 6.309.402 13.646.402z"
    fill="#fff" stroke="#fa7268" stroke-width=".804" />
  <path
    d="M87.271 27.93V15.57h-1.228v25.873h1.228V29.12h7.831v12.322h1.228V15.57h-1.228v12.36zm23.57 13.513h1.228l-5.912-25.873h-.96l-3.915 16.775v.115l-2.035 8.983h1.228l1.766-7.908h6.833zm-5.182-22.61l3.148 13.512h-6.257zm4.644-2.073h5.029v24.645h1.19V16.76h5.067v-1.228h-11.286zm14.894 11.17V15.57h-1.228v25.873h1.228V29.12h7.831v12.322h1.228V15.57h-1.228v12.36z" />
  <use xlink:href="#B" />
  <path d="M160.897 15.57h-1.382l5.681 13.09v12.783h1.19V28.66l5.643-13.09h-1.382l-4.875 11.171z" />
  <use xlink:href="#C" />
  <use xlink:href="#D" />
  <use xlink:href="#B" x="61.88" />
  <use xlink:href="#D" x="36.621" />
  <path
    d="M246.424 34.226c0-1.958-.576-3.455-1.727-4.568a4.47 4.47 0 0 0-1.305-.921c.614-.307 1.497-.691 1.919-1.19.96-1.113 1.42-2.841 1.42-5.144 0-4.722-1.459-6.871-5.605-6.871h-5.413v25.873h1.19V29.312h3.455c3.071 0 4.837 1.804 4.837 4.914v7.178h1.228zm-9.52-17.466h4.223c3.416 0 4.415 1.612 4.415 5.643 0 3.992-1.766 5.681-5.182 5.681h-3.455z" />
  <use xlink:href="#C" x="77.158" />
  <use xlink:href="#E" />
  <path d="M277.824 15.57h-1.19v25.873h1.19z" />
  <use xlink:href="#E" x="18.004" />
  <use xlink:href="#D" x="108.981" />
  <path d="M308.035 15.57v25.873h9.29v-1.19h-8.1V29.082h6.948v-1.19h-6.948V16.76h8.1v-1.19z" />
  <use xlink:href="#E" x="56.967" />

</svg>