<?xml version="1.0" encoding="UTF-8" standalone="no"?>
<svg viewBox="0 0 362.88885 56.5" fill="#fa7268" version="1.1" id="svg43" xmlns="http://www.w3.org/2000/svg"
  xmlns:svg="http://www.w3.org/2000/svg">
  <path
    d="M 11.903445,0.37523749 H 350.98542 c 6.38648,0 11.52821,5.91267671 11.52821,13.25672751 v 29.23607 c 0,7.344051 -5.14173,13.256728 -11.52821,13.256728 H 11.903445 c -6.3864735,0 -11.52820751,-5.912677 -11.52820751,-13.256728 v -29.23607 c 0,-7.3440508 5.14173401,-13.25672751 11.52820751,-13.25672751 z"
    fill="#ffffff" stroke="#fa7268" stroke-width="0.750475" id="path2" />
  <g aria-label="HATHA YOGA GRONINGEN" id="text385" style="font-size:38.3872px;stroke-width:3.19892"
    transform="translate(-25.362223)">
    <path
      d="M 87.270862,27.93031 V 15.569632 h -1.22839 v 25.872972 h 1.22839 V 29.120313 h 7.830989 v 12.322291 h 1.22839 V 15.569632 h -1.22839 V 27.93031 Z" />
    <path
      d="m 110.8406,41.442604 h 1.22839 l -5.91163,-25.872972 h -0.95968 l -3.91549,16.775206 v 0.115161 l -2.034527,8.982605 h 1.228387 l 1.76582,-7.907763 h 6.83292 z m -5.18227,-22.61006 3.14775,13.512294 h -6.25712 z" />
    <path d="m 110.30308,16.759635 h 5.02872 v 24.644582 h 1.19 V 16.759635 h 5.06711 v -1.228391 h -11.28583 z" />
    <path
      d="M 125.1973,27.93031 V 15.569632 h -1.22839 v 25.872972 h 1.22839 V 29.120313 h 7.83099 v 12.322291 h 1.22839 V 15.569632 h -1.22839 V 27.93031 Z" />
    <path
      d="m 148.76704,41.442604 h 1.22839 L 144.0838,15.569632 h -0.95968 l -3.9155,16.775206 v 0.115161 l -2.03452,8.982605 h 1.22839 l 1.76581,-7.907763 h 6.83292 z m -5.18228,-22.61006 3.14775,13.512294 h -6.25711 z" />
    <path
      d="m 160.89729,15.569632 h -1.38194 l 5.68131,13.090035 v 12.782937 h 1.19 V 28.659667 l 5.64292,-13.090035 h -1.38194 l -4.87518,11.170675 z" />
    <path
      d="m 171.87596,34.571295 c 0,2.87904 0.72936,4.52969 1.8042,5.566144 1.07484,1.036455 2.45678,1.305165 3.68517,1.305165 1.26678,0 2.64872,-0.26871 3.72356,-1.305165 1.07484,-1.036454 1.8042,-2.687104 1.8042,-5.566144 V 22.402553 c 0,-4.452915 -1.84259,-6.832921 -5.52776,-6.832921 -3.64678,0 -5.48937,2.418393 -5.48937,6.832921 z m 1.19,-12.168742 c 0,-3.83872 1.38194,-5.642918 4.29937,-5.642918 2.87904,0 4.29937,1.689037 4.29937,5.642918 v 12.168742 c 0,3.992269 -1.4971,5.681306 -4.29937,5.681306 -2.87904,0 -4.29937,-1.804198 -4.29937,-5.681306 z" />
    <path
      d="m 185.54176,34.609683 c 0,4.414528 1.84259,6.832921 5.52776,6.832921 3.68517,0 5.52776,-2.380006 5.52776,-6.832921 v -4.606464 h -6.83293 v 1.22839 h 5.60454 v 3.378074 c 0,3.83872 -1.42033,5.642918 -4.29937,5.642918 -2.91743,0 -4.33775,-1.804198 -4.33775,-5.642918 V 22.364166 c 0,-2.495168 0.65258,-3.915494 1.4971,-4.683238 0.84451,-0.767744 1.91936,-0.921293 2.84065,-0.921293 0.92129,0 1.99613,0.153549 2.84065,0.921293 0.84452,0.767744 1.45872,2.18807 1.45872,4.683238 v 0.614195 h 1.22839 v -0.614195 c 0,-4.452915 -1.84259,-6.794534 -5.52776,-6.794534 -3.68517,0 -5.52776,2.341619 -5.52776,6.794534 z" />
    <path
      d="m 210.64696,41.442604 h 1.22839 l -5.91162,-25.872972 h -0.95968 l -3.9155,16.775206 v 0.115161 l -2.03452,8.982605 h 1.22839 l 1.76581,-7.907763 h 6.83292 z m -5.18227,-22.61006 3.14775,13.512294 h -6.25711 z" />
    <path
      d="m 222.16302,34.609683 c 0,4.414528 1.84258,6.832921 5.52775,6.832921 3.68517,0 5.52776,-2.380006 5.52776,-6.832921 v -4.606464 h -6.83292 v 1.22839 h 5.60453 v 3.378074 c 0,3.83872 -1.42033,5.642918 -4.29937,5.642918 -2.91742,0 -4.33775,-1.804198 -4.33775,-5.642918 V 22.364166 c 0,-2.495168 0.65258,-3.915494 1.4971,-4.683238 0.84452,-0.767744 1.91936,-0.921293 2.84065,-0.921293 0.9213,0 1.99614,0.153549 2.84066,0.921293 0.84451,0.767744 1.45871,2.18807 1.45871,4.683238 v 0.614195 h 1.22839 v -0.614195 c 0,-4.452915 -1.84259,-6.794534 -5.52776,-6.794534 -3.68517,0 -5.52775,2.341619 -5.52775,6.794534 z" />
    <path
      d="m 246.4237,34.225811 c 0,-1.957748 -0.57581,-3.454848 -1.72742,-4.568077 -0.38388,-0.383872 -0.80613,-0.69097 -1.30517,-0.921293 0.6142,-0.307098 1.4971,-0.69097 1.91936,-1.190003 0.95968,-1.113229 1.42033,-2.840653 1.42033,-5.143885 0,-4.721625 -1.45872,-6.871309 -5.60453,-6.871309 h -5.4126 v 25.872973 h 1.19 V 29.312249 h 3.45485 c 3.07098,0 4.83679,1.804198 4.83679,4.913562 v 7.178406 h 1.22839 z m -9.52003,-17.466176 h 4.2226 c 3.41646,0 4.41452,1.612262 4.41452,5.642918 0,3.992269 -1.76581,5.681306 -5.18227,5.681306 h -3.45485 z" />
    <path
      d="m 249.03402,34.571295 c 0,2.87904 0.72936,4.52969 1.8042,5.566144 1.07484,1.036455 2.45678,1.305165 3.68517,1.305165 1.26678,0 2.64871,-0.26871 3.72356,-1.305165 1.07484,-1.036454 1.80419,-2.687104 1.80419,-5.566144 V 22.402553 c 0,-4.452915 -1.84258,-6.832921 -5.52775,-6.832921 -3.64679,0 -5.48937,2.418393 -5.48937,6.832921 z m 1.19,-12.168742 c 0,-3.83872 1.38194,-5.642918 4.29937,-5.642918 2.87904,0 4.29936,1.689037 4.29936,5.642918 v 12.168742 c 0,3.992269 -1.4971,5.681306 -4.29936,5.681306 -2.87904,0 -4.29937,-1.804198 -4.29937,-5.681306 z" />
    <path
      d="M 273.83211,41.442604 V 15.569632 h -1.22839 v 22.149414 l -8.90583,-22.149414 h -1.03646 v 25.872972 h 1.22839 V 19.29319 l 8.94422,22.149414 z" />
    <path d="m 277.82434,15.569632 h -1.19001 v 25.872972 h 1.19001 z" />
    <path
      d="M 291.83563,41.442604 V 15.569632 h -1.22839 v 22.149414 l -8.90583,-22.149414 h -1.03645 v 25.872972 h 1.22839 V 19.29319 l 8.94422,22.149414 z" />
    <path
      d="m 294.52268,34.609683 c 0,4.414528 1.84259,6.832921 5.52776,6.832921 3.68517,0 5.52775,-2.380006 5.52775,-6.832921 v -4.606464 h -6.83292 v 1.22839 h 5.60453 v 3.378074 c 0,3.83872 -1.42032,5.642918 -4.29936,5.642918 -2.91743,0 -4.33776,-1.804198 -4.33776,-5.642918 V 22.364166 c 0,-2.495168 0.65259,-3.915494 1.49711,-4.683238 0.84451,-0.767744 1.91936,-0.921293 2.84065,-0.921293 0.92129,0 1.99613,0.153549 2.84065,0.921293 0.84452,0.767744 1.45871,2.18807 1.45871,4.683238 v 0.614195 h 1.22839 v -0.614195 c 0,-4.452915 -1.84258,-6.794534 -5.52775,-6.794534 -3.68517,0 -5.52776,2.341619 -5.52776,6.794534 z" />
    <path
      d="m 308.03495,15.569632 v 25.872972 h 9.2897 v -1.190003 h -8.0997 V 29.081926 h 6.94809 v -1.190003 h -6.94809 V 16.759635 h 8.0997 v -1.190003 z" />
    <path
      d="M 330.79854,41.442604 V 15.569632 h -1.22839 v 22.149414 l -8.90583,-22.149414 h -1.03646 v 25.872972 h 1.22839 V 19.29319 l 8.94422,22.149414 z" />
  </g>
</svg>