<?xml version="1.0" encoding="UTF-8"?>
<svg fill="#fa7268" version="1.1" viewBox="0 0 388.62 56.551" xmlns="http://www.w3.org/2000/svg" xmlns:xlink="http://www.w3.org/1999/xlink">
 <defs>
  <path id="B" d="m148.77 41.443h1.228l-5.912-25.873h-0.96l-3.916 16.775v0.115l-2.035 8.983h1.228l1.766-7.908h6.833zm-5.182-22.61 3.148 13.512h-6.257z"/>
  <path id="C" d="m171.88 34.571c0 2.879 0.729 4.53 1.804 5.566s2.457 1.305 3.685 1.305c1.267 0 2.649-0.269 3.724-1.305s1.804-2.687 1.804-5.566v-12.168c0-4.453-1.843-6.833-5.528-6.833-3.647 0-5.489 2.418-5.489 6.833zm1.19-12.169c0-3.839 1.382-5.643 4.299-5.643 2.879 0 4.299 1.689 4.299 5.643v12.169c0 3.992-1.497 5.681-4.299 5.681-2.879 0-4.299-1.804-4.299-5.681z"/>
  <path id="D" d="m185.54 34.61c0 4.415 1.843 6.833 5.528 6.833s5.528-2.38 5.528-6.833v-4.606h-6.833v1.228h5.605v3.378c0 3.839-1.42 5.643-4.299 5.643-2.917 0-4.338-1.804-4.338-5.643v-12.246c0-2.495 0.653-3.915 1.497-4.683s1.919-0.921 2.841-0.921 1.996 0.154 2.841 0.921 1.459 2.188 1.459 4.683v0.614h1.228v-0.614c0-4.453-1.843-6.795-5.528-6.795s-5.528 2.342-5.528 6.795z"/>
  <path id="E" d="m273.83 41.443v-25.873h-1.228v22.149l-8.906-22.149h-1.036v25.873h1.228v-22.15l8.944 22.149z"/>
 </defs>
 <path d="m12.759 0.41453h363.1c6.8388 0 12.345 5.9098 12.345 13.25v29.222c0 7.3404-5.5059 13.25-12.345 13.25h-363.1c-6.8388 0-12.345-5.9098-12.345-13.25v-29.222c0-7.3404 5.5059-13.25 12.345-13.25z" fill="#fff" stroke="#fa7268" stroke-width=".82906"/>
 <path d="m73.159 27.956v-12.36h-1.228v25.873h1.228v-12.323h7.831v12.322h1.228v-25.872h-1.228v12.36zm23.57 13.513h1.228l-5.912-25.873h-0.96l-3.915 16.775v0.115l-2.035 8.983h1.228l1.766-7.908h6.833zm-5.182-22.61 3.148 13.512h-6.257zm4.644-2.073h5.029v24.645h1.19v-24.645h5.067v-1.228h-11.286zm14.894 11.17v-12.36h-1.228v25.873h1.228v-12.323h7.831v12.322h1.228v-25.872h-1.228v12.36z"/>
 <use transform="translate(-14.112 .025533)" xlink:href="#B"/>
 <path d="m146.78 15.596h-1.382l5.681 13.09v12.783h1.19v-12.783l5.643-13.09h-1.382l-4.875 11.171z"/>
 <use transform="translate(-14.112 .025533)" xlink:href="#C"/>
 <use transform="translate(-14.112 .025533)" xlink:href="#D"/>
 <use transform="translate(-14.112 .025533)" x="61.880001" xlink:href="#B"/>
 <use transform="translate(-14.112 .025533)" x="36.620998" xlink:href="#D"/>
 <path d="m232.31 34.252c0-1.958-0.576-3.455-1.727-4.568a4.47 4.47 0 0 0-1.305-0.921c0.614-0.307 1.497-0.691 1.919-1.19 0.96-1.113 1.42-2.841 1.42-5.144 0-4.722-1.459-6.871-5.605-6.871h-5.413v25.873h1.19v-12.093h3.455c3.071 0 4.837 1.804 4.837 4.914v7.178h1.228zm-9.52-17.466h4.223c3.416 0 4.415 1.612 4.415 5.643 0 3.992-1.766 5.681-5.182 5.681h-3.455z"/>
 <use transform="translate(-14.112 .025533)" x="77.157997" xlink:href="#C"/>
 <use transform="translate(-14.112 .025533)" xlink:href="#E"/>
 <path d="m263.71 15.596h-1.19v25.873h1.19z"/>
 <use transform="translate(-14.112 .025533)" x="18.004" xlink:href="#E"/>
 <use transform="translate(-14.112 .025533)" x="108.981" xlink:href="#D"/>
 <path d="m293.92 15.596v25.873h9.29v-1.19h-8.1v-11.171h6.948v-1.19h-6.948v-11.132h8.1v-1.19z"/>
 <use transform="translate(-14.112 .025533)" x="56.966999" xlink:href="#E"/>
</svg>
