<?xml version="1.0" encoding="UTF-8" standalone="no"?>
<svg fill="#fa7268" viewBox="0 0 365.33654 56.551067" version="1.1" id="svg571" xmlns="http://www.w3.org/2000/svg"
  xmlns:svg="http://www.w3.org/2000/svg">
  <defs id="defs537">
    <path id="B"
      d="m 148.767,41.443 h 1.228 L 144.083,15.57 h -0.96 l -3.916,16.775 v 0.115 l -2.035,8.983 h 1.228 l 1.766,-7.908 h 6.833 z m -5.182,-22.61 3.148,13.512 h -6.257 z" />
    <path id="C"
      d="m 171.876,34.571 c 0,2.879 0.729,4.53 1.804,5.566 1.075,1.036 2.457,1.305 3.685,1.305 1.267,0 2.649,-0.269 3.724,-1.305 1.075,-1.036 1.804,-2.687 1.804,-5.566 V 22.403 c 0,-4.453 -1.843,-6.833 -5.528,-6.833 -3.647,0 -5.489,2.418 -5.489,6.833 z m 1.19,-12.169 c 0,-3.839 1.382,-5.643 4.299,-5.643 2.879,0 4.299,1.689 4.299,5.643 v 12.169 c 0,3.992 -1.497,5.681 -4.299,5.681 -2.879,0 -4.299,-1.804 -4.299,-5.681 z" />
    <path id="D"
      d="m 185.542,34.61 c 0,4.415 1.843,6.833 5.528,6.833 3.685,0 5.528,-2.38 5.528,-6.833 v -4.606 h -6.833 v 1.228 h 5.605 v 3.378 c 0,3.839 -1.42,5.643 -4.299,5.643 -2.917,0 -4.338,-1.804 -4.338,-5.643 V 22.364 c 0,-2.495 0.653,-3.915 1.497,-4.683 0.844,-0.768 1.919,-0.921 2.841,-0.921 0.922,0 1.996,0.154 2.841,0.921 0.845,0.767 1.459,2.188 1.459,4.683 v 0.614 h 1.228 v -0.614 c 0,-4.453 -1.843,-6.795 -5.528,-6.795 -3.685,0 -5.528,2.342 -5.528,6.795 z" />
    <path id="E"
      d="M 273.832,41.443 V 15.57 h -1.228 V 37.719 L 263.698,15.57 h -1.036 v 25.873 h 1.228 v -22.15 l 8.944,22.149 z" />
  </defs>
  <path
    d="M 12.006422,0.40200001 H 353.33014 c 6.42869,0 11.60442,5.91241589 11.60442,13.25614299 v 29.23478 c 0,7.343727 -5.17573,13.256143 -11.60442,13.256143 H 12.006422 c -6.428696,0 -11.60442199,-5.912416 -11.60442199,-13.256143 v -29.23478 c 0,-7.3437271 5.17572599,-13.25614299 11.60442199,-13.25614299 z"
    fill="#ffffff" stroke="#fa7268" stroke-width="0.804" id="path539" />
  <path
    d="m 61.51878,27.955533 v -12.36 h -1.228 v 25.873 h 1.228 v -12.323 h 7.831 v 12.322 h 1.228 v -25.872 h -1.228 v 12.36 z m 23.57,13.513 h 1.228 l -5.912,-25.873 h -0.96 l -3.915,16.775 v 0.115 l -2.035,8.983 h 1.228 l 1.766,-7.908 h 6.833 z m -5.182,-22.61 3.148,13.512 h -6.257 z m 4.644,-2.073 h 5.029 v 24.645 h 1.19 v -24.645 h 5.067 v -1.228 h -11.286 z m 14.894,11.17 v -12.36 h -1.228 v 25.873 h 1.228 v -12.323 h 7.831 v 12.322 h 1.228 v -25.872 h -1.228 v 12.36 z"
    id="path541" />
  <use xlink:href="#B" id="use543" transform="translate(-25.75222,0.02553273)" />
  <path
    d="m 135.14478,15.595533 h -1.382 l 5.681,13.09 v 12.783 h 1.19 v -12.783 l 5.643,-13.09 h -1.382 l -4.875,11.171 z"
    id="path545" />
  <use xlink:href="#C" id="use547" transform="translate(-25.75222,0.02553273)" />
  <use xlink:href="#D" id="use549" transform="translate(-25.75222,0.02553273)" />
  <use xlink:href="#B" x="61.880001" id="use551" transform="translate(-25.75222,0.02553273)" />
  <use xlink:href="#D" x="36.620998" id="use553" transform="translate(-25.75222,0.02553273)" />
  <path
    d="m 220.67178,34.251533 c 0,-1.958 -0.576,-3.455 -1.727,-4.568 a 4.47,4.47 0 0 0 -1.305,-0.921 c 0.614,-0.307 1.497,-0.691 1.919,-1.19 0.96,-1.113 1.42,-2.841 1.42,-5.144 0,-4.722 -1.459,-6.871 -5.605,-6.871 h -5.413 v 25.873 h 1.19 v -12.093 h 3.455 c 3.071,0 4.837,1.804 4.837,4.914 v 7.178 h 1.228 z m -9.52,-17.466 h 4.223 c 3.416,0 4.415,1.612 4.415,5.643 0,3.992 -1.766,5.681 -5.182,5.681 h -3.455 z"
    id="path555" />
  <use xlink:href="#C" x="77.157997" id="use557" transform="translate(-25.75222,0.02553273)" />
  <use xlink:href="#E" id="use559" transform="translate(-25.75222,0.02553273)" />
  <path d="m 252.07178,15.595533 h -1.19 v 25.873 h 1.19 z" id="path561" />
  <use xlink:href="#E" x="18.004" id="use563" transform="translate(-25.75222,0.02553273)" />
  <use xlink:href="#D" x="108.981" id="use565" transform="translate(-25.75222,0.02553273)" />
  <path
    d="m 282.28278,15.595533 v 25.873 h 9.29 v -1.19 h -8.1 v -11.171 h 6.948 v -1.19 h -6.948 v -11.132 h 8.1 v -1.19 z"
    id="path567" />
  <use xlink:href="#E" x="56.966999" id="use569" transform="translate(-25.75222,0.02553273)" />
</svg>