<svg xmlns="http://www.w3.org/2000/svg" xmlns:xlink="http://www.w3.org/1999/xlink" fill="#fa7268"
  viewBox="0 0 416.841 56.5" xmlns:v="https://vecta.io/nano">
  <path
    d="M11.719.386h333.34c6.278 0 11.333 5.913 11.333 13.259v29.24c0 7.345-5.055 13.259-11.333 13.259H11.719C5.44 56.143.386 50.229.386 42.884v-29.24C.386 6.299 5.44.386 11.719.386z"
    fill="#fff" stroke="#fa7268" stroke-width=".771" />
  <path
    d="M58.154 27.944v-12.36h-1.228v25.873h1.228V29.134h7.831v12.322h1.228V15.584h-1.228v12.36zm23.57 13.513h1.228L77.04 15.584h-.96l-3.915 16.775v.115l-2.035 8.983h1.228l1.766-7.908h6.833zm-5.182-22.61l3.148 13.512h-6.257zm4.644-2.073h5.029v24.645h1.19V16.774h5.067v-1.228H81.186zm14.894 11.17v-12.36h-1.228v25.873h1.228V29.134h7.831v12.322h1.228V15.584h-1.228v12.36z" />
  <use xlink:href="#A" x="-29.117" y=".014" />
  <path d="M131.78 15.584h-1.382l5.681 13.09v12.783h1.19V28.674l5.643-13.09h-1.382l-4.875 11.171z" />
  <use xlink:href="#B" x="-29.117" y=".014" />
  <use xlink:href="#C" x="-29.117" y=".014" />
  <use xlink:href="#A" x="32.763" y=".014" />
  <use xlink:href="#C" x="7.504" y=".014" />
  <path
    d="M217.307 34.24c0-1.958-.576-3.455-1.727-4.568a4.47 4.47 0 0 0-1.305-.921c.614-.307 1.497-.691 1.919-1.19.96-1.113 1.42-2.841 1.42-5.144 0-4.722-1.459-6.871-5.605-6.871h-5.413v25.873h1.19V29.326h3.455c3.071 0 4.837 1.804 4.837 4.914v7.178h1.228zm-9.52-17.466h4.223c3.416 0 4.415 1.612 4.415 5.643 0 3.992-1.766 5.681-5.182 5.681h-3.455z" />
  <use xlink:href="#B" x="48.041" y=".014" />
  <use xlink:href="#D" x="-29.117" y=".014" />
  <path d="M248.707 15.584h-1.19v25.873h1.19z" />
  <use xlink:href="#D" x="-11.113" y=".014" />
  <use xlink:href="#C" x="79.864" y=".014" />
  <path d="M278.918 15.584v25.873h9.29v-1.19h-8.1V29.096h6.948v-1.19h-6.948V16.774h8.1v-1.19z" />
  <use xlink:href="#D" x="27.85" y=".014" />
  <defs>
    <path id="A"
      d="M148.767 41.443h1.228l-5.912-25.873h-.96l-3.916 16.775v.115l-2.035 8.983h1.228l1.766-7.908h6.833zm-5.182-22.61l3.148 13.512h-6.257z" />
    <path id="B"
      d="M171.876 34.571c0 2.879.729 4.53 1.804 5.566s2.457 1.305 3.685 1.305c1.267 0 2.649-.269 3.724-1.305s1.804-2.687 1.804-5.566V22.403c0-4.453-1.843-6.833-5.528-6.833-3.647 0-5.489 2.418-5.489 6.833zm1.19-12.169c0-3.839 1.382-5.643 4.299-5.643 2.879 0 4.299 1.689 4.299 5.643v12.169c0 3.992-1.497 5.681-4.299 5.681-2.879 0-4.299-1.804-4.299-5.681z" />
    <path id="C"
      d="M185.542 34.61c0 4.415 1.843 6.833 5.528 6.833s5.528-2.38 5.528-6.833v-4.606h-6.833v1.228h5.605v3.378c0 3.839-1.42 5.643-4.299 5.643-2.917 0-4.338-1.804-4.338-5.643V22.364c0-2.495.653-3.915 1.497-4.683s1.919-.921 2.841-.921 1.996.154 2.841.921 1.459 2.188 1.459 4.683v.614h1.228v-.614c0-4.453-1.843-6.795-5.528-6.795s-5.528 2.342-5.528 6.795z" />
    <path id="D" d="M273.832 41.443V15.57h-1.228v22.149l-8.906-22.149h-1.036v25.873h1.228v-22.15l8.944 22.149z" />
  </defs>
</svg>