<svg viewBox="0 0 417 59" fill="#fa7268">
  <rect width="416.037" height="55.696" ry="13.244" fill="#fff" stroke="#fa7268" stroke-width=".804" />
  <use xlink:href="#B" />
  <use xlink:href="#C" />
  <path d="M72.369 16.03h5.24v25.68h1.24V16.03h5.28v-1.28h-11.76z" />
  <use xlink:href="#B" x="38.712" />
  <path
    d="M111.64 41.75h1.28l-6.16-26.96h-1l-4.08 17.48v.12l-2.12 9.36h1.28l1.84-8.24h7.12zm-5.4-23.56l3.28 14.08H103zm18.04-3.4h-1.44l5.92 13.64v13.32H130V28.43l5.88-13.64h-1.44l-5.08 11.64zm12.792 19.8c0 3 .76 4.72 1.88 5.8s2.56 1.36 3.84 1.36c1.32 0 2.76-.28 3.88-1.36s1.88-2.8 1.88-5.8V21.91c0-4.64-1.92-7.12-5.76-7.12-3.8 0-5.72 2.52-5.72 7.12zm1.24-12.68c0-4 1.44-5.88 4.48-5.88 3 0 4.48 1.76 4.48 5.88v12.68c0 4.16-1.56 5.92-4.48 5.92-3 0-4.48-1.88-4.48-5.92zm13 12.72c0 4.6 1.92 7.12 5.76 7.12s5.76-2.48 5.76-7.12v-4.8h-7.12v1.28h5.84v3.52c0 4-1.48 5.88-4.48 5.88-3.04 0-4.52-1.88-4.52-5.88V21.87c0-2.6.68-4.08 1.56-4.88s2-.96 2.96-.96 2.08.16 2.96.96 1.52 2.28 1.52 4.88v.64h1.28v-.64c0-4.64-1.92-7.08-5.76-7.08s-5.76 2.44-5.76 7.08z" />
  <use xlink:href="#C" x="103.937" />
  <use xlink:href="#B" x="140.968" />
  <use xlink:href="#C" x="140.968" />
  <path
    d="M228.289 41.75V14.79h-1.28v23.08l-9.28-23.08h-1.08v26.96h1.28V18.67l9.32 23.08zm14.4 0V14.79h-1.28v23.08l-9.28-23.08h-1.08v26.96h1.28V18.67l9.32 23.08z" />
  <use xlink:href="#D" />
  <path d="M258.808 30.11V14.79h-1.28v26.96h1.28v-9.36l2.24-3.4 7.28 12.76h1.44l-8-14.08 8-12.88h-1.52z" />
  <use xlink:href="#D" x="25.712" />
  <path
    d="M291.32 35.15c0 4.36 1.8 6.6 5.36 6.6s5.32-2.24 5.32-6.6V14.79h-1.24v20.36c0 3.68-1.4 5.36-4.08 5.36-.92 0-1.92-.12-2.72-.88s-1.4-2.08-1.4-4.48v-.6h-1.24z" />
  <use xlink:href="#C" x="243.023" />
  <path
    d="M318.592 34.59c0 4.76 1.92 7.12 5.76 7.12 3.72 0 5.8-2.12 5.8-6.12 0-6.92-10.32-8.2-10.32-14.6 0-3.48 1.64-4.96 4.52-4.96 3.04 0 4.52 1.84 4.52 5.88v.64h1.28v-.64c0-4.64-2-7.16-5.8-7.16-3.68 0-5.76 2.32-5.76 6.36 0 6.96 10.28 8.6 10.28 14.6 0 3.56-1.64 4.76-4.52 4.76-.96 0-2.08-.16-2.96-.96s-1.56-2.24-1.56-4.92v-.6h-1.24zm18.799-5.72c4.32 0 6.28-2.36 6.28-7.04s-1.96-7.04-6.28-7.04h-4.84v26.96h1.24V28.87zm0-12.84c3.56 0 5 1.64 5 5.8 0 4.04-1.48 5.8-5 5.8h-3.6v-11.6z" />
  <use xlink:href="#D" x="100.219" />
  <path
    d="M368.623 34.23c0-2.04-.6-3.6-1.8-4.76-.4-.4-.84-.72-1.36-.96.64-.32 1.56-.72 2-1.24 1-1.16 1.48-2.96 1.48-5.36 0-4.92-1.52-7.16-5.84-7.16h-5.64v26.96h1.24v-12.6h3.6c3.2 0 5.04 1.88 5.04 5.12v7.48h1.28zm-9.92-18.2h4.4c3.56 0 4.6 1.68 4.6 5.88 0 4.16-1.84 5.92-5.4 5.92h-3.6z" />
  <defs>
    <path id="B" d="M49.177 27.67V14.79h-1.28v26.96h1.28V28.91h8.16v12.84h1.28V14.79h-1.28v12.88z" />
    <path id="C"
      d="M72.929 41.75h1.28l-6.16-26.96h-1l-4.08 17.48v.12l-2.12 9.36h1.28l1.84-8.24h7.12zm-5.4-23.56l3.28 14.08h-6.52z" />
    <path id="D" d="M245.488 14.79v26.96h9.68v-1.24h-8.44V28.87h7.24v-1.24h-7.24v-11.6h8.44v-1.24z" />
  </defs>
</svg>